General Information
 Complete name: Adele-Live.at.the.Royal.Albert.Hall.2011.BRRip.XviD.AC3-PRESTiGE
 Format: AVI
 Format/Info: Audio Video Interleave
 File size: 1.81 GiB
 Duration: 1h 39mn
 Overall bit rate: 2 607 Kbps
 Subs: N/A
 Source: 720p BluRay DTS x264-DNL Many THANKS
 Encoder: akosipalos
 
ID: 0
 
Format: MPEG-4 Visual
 Format profile: Advanced Simple@L5
 Format settings, BVOP: 2
 Format settings, QPel: No
 Format settings, GMC: No warppoints
 Format settings, Matrix: Default (H.263)
 Codec ID: XVID
 Codec ID/Hint: XviD
 Duration: 1h 39mn
 Bit rate: 2 150 Kbps
 Width: 720 pixels
 Height: 304 pixels
 Display aspect ratio: 2.35:1
 Frame rate: 29.970 fps
 Color space: YUV
 Chroma subsampling: 4:2:0
 Bit depth: 8 bits
 Scan type: Progressive
 Compression mode: Lossy
 Bits/(Pixel*Frame): 0.328
 Stream size: 1.49 GiB (82%)
 Writing library: XviD 1.2.1 (UTC 2008-12-04)
 
ID: 1
 
Format: AC-3
 Format/Info: Audio Coding 3
 Mode extension: CM (complete main)
 Codec ID: 2000
 Duration: 1h 39mn
 Bit rate mode: Constant
 Bit rate: 448 Kbps
 Channel(s): 6 channels
 Channel positions: Front: L C R, Side: L R, LFE
 Sampling rate: 48.0 KHz
 Bit depth: 16 bits
 Compression mode: Lossy
 Stream size: 318 MiB (17%)
 Alignment: Aligned on interleaves
 Interleave, duration: 64 ms (1.92 video frames)
 Interleave, preload duration: 192 ms 
